<svg width="149.934" height="64.956" viewBox="0 0 149.934 64.956" xmlns="http://www.w3.org/2000/svg"><g id="svgGroup" stroke-linecap="round" fill-rule="nonzero" font-size="9pt" stroke="#E8956D" stroke-width="0.5" fill="#E8956D" style="stroke:#E8956D;stroke-width:0.5;fill:#E8956D"><path d="M 0.009 36.381 L 0.009 34.431 L 8.934 34.431 L 8.934 36.381 Q 8.934 41.556 12.084 44.106 Q 15.234 46.656 20.484 46.656 A 14.609 14.609 0 0 0 27.202 45.328 A 7.81 7.81 0 0 0 28.509 44.481 Q 31.209 42.306 31.209 38.856 Q 31.209 36.531 29.934 35.068 Q 28.659 33.606 26.222 32.706 Q 23.784 31.806 20.334 30.981 L 18.084 30.531 Q 12.909 29.331 9.122 27.493 Q 5.334 25.656 3.309 22.731 Q 1.284 19.806 1.284 15.081 Q 1.284 10.356 3.534 6.981 Q 5.784 3.606 9.909 1.806 Q 14.034 0.006 19.584 0.006 Q 25.134 0.006 29.484 1.881 Q 33.834 3.756 36.347 7.506 Q 38.859 11.256 38.859 16.881 L 38.859 19.356 L 29.934 19.356 L 29.934 16.881 Q 29.934 13.656 28.659 11.706 Q 27.384 9.756 25.059 8.856 Q 22.734 7.956 19.584 7.956 A 12.878 12.878 0 0 0 13.296 9.261 A 6.856 6.856 0 0 0 12.534 9.756 Q 10.134 11.556 10.134 14.856 Q 10.134 16.956 11.222 18.418 Q 12.309 19.881 14.447 20.818 Q 16.584 21.756 19.809 22.431 L 22.059 22.956 Q 27.459 24.156 31.509 25.993 Q 35.559 27.831 37.847 30.831 Q 40.134 33.831 40.134 38.631 Q 40.134 43.356 37.697 46.956 Q 35.259 50.556 30.872 52.581 Q 26.484 54.606 20.484 54.606 Q 14.484 54.606 9.872 52.468 Q 5.259 50.331 2.634 46.281 Q 0.009 42.231 0.009 36.381 Z M 76.509 53.556 L 67.884 53.556 L 67.884 16.506 L 76.359 16.506 L 76.359 21.681 L 77.634 21.681 Q 78.609 19.581 81.159 17.706 A 11.26 11.26 0 0 1 87.036 15.897 A 24.723 24.723 0 0 1 88.884 15.831 Q 93.159 15.831 96.459 17.781 Q 99.759 19.731 101.597 23.181 Q 103.434 26.631 103.434 31.356 L 103.434 53.556 L 94.809 53.556 L 94.809 32.031 A 9.527 9.527 0 0 0 92.929 25.678 A 6.183 6.183 0 0 0 92.597 25.318 Q 90.384 23.106 86.334 23.106 Q 81.759 23.106 79.134 26.143 A 12.186 12.186 0 0 0 76.532 33.774 A 22.598 22.598 0 0 0 76.509 34.806 L 76.509 53.556 Z M 56.934 53.556 L 48.309 53.556 L 48.309 16.506 L 56.934 16.506 L 56.934 53.556 Z M 131.3 64.956 L 95 64.956 L 95 57.156 L 131.3 57.156 L 131.3 64.956 Z M 52.584 11.781 Q 50.259 11.781 48.572 10.243 Q 46.884 8.706 46.884 6.156 Q 46.884 3.606 48.572 2.068 Q 50.259 0.531 52.584 0.531 Q 55.059 0.531 56.672 2.068 Q 58.284 3.606 58.284 6.156 Q 58.284 8.706 56.672 10.243 Q 55.059 11.781 52.584 11.781 Z"/></g></svg>